{"title":"The Flash 2014 S02E07 1080p HDTV X264-DIMENSION[rartv]","uid":12788463,"size":2181248056,"categoryP":"video","categoryS":"hd___tv_shows","magnet":"?xt=urn:btih:d8f6fb9bf9587453f9b5cf36ed3d79da349d2564&amp;dn=The+Flash+2014+S02E07+1080p+HDTV+X264-DIMENSION%5Brartv%5D&amp;tr=udp%3A%2F%2Ftracker.leechers-paradise.org%3A6969&amp;tr=udp%3A%2F%2Fzer0day.ch%3A1337&amp;tr=udp%3A%2F%2Fopen.demonii.com%3A1337&amp;tr=udp%3A%2F%2Ftracker.coppersurfer.tk%3A6969&amp;tr=udp%3A%2F%2Fexodus.desync.com%3A6969","seeders":0,"leechers":1,"uploader":"cheerfulcaca","files":5,"time":1447886173,"description":"SEASON 2, EPISODE 7 OFFICIAL SYNOPSIS:\r\n\r\nGrodd returns to Central City and kidnaps Caitlin (Danielle Panabaker). Barry (Grant Gustin) and team race to find her before it’s too late. Meanwhile, Cisco (Carlos Valdes) plans his first date with the new barista at Jitters, Kendra Saunders (guest star Ciara Renée) and Patty (guest star Shantel VanSanten) begins to suspect Barry is hiding something from her. \r\n\r\n\r\nSERIES INFO:\r\n\r\n8.3/10·IMDb\r\n8.3/10·TV.com\r\n\r\nAt 11, Barry Allen's life changed completely when his mother died in a freak accident and his innocent father was convicted of her murder. Now a crime-scene investigator, his dedication to learn the truth about his mother's death drives him to follow up on every new scientific advancement and urban legend. When his latest obsession -- a particle accelerator heralded as a world-changing invention -- causes an explosion, it creates a freak storm and Barry is struck by lightning. He awakes from a coma nine months later with the power of superspeed. When he learns that others who have gained powers use them for evil, he dedicates himself to protecting the innocent, while still trying to solve the older mystery.\r\n\r\n\r\nMEDIA INFO:\r\n\r\nVideo:\r\n\r\nID : 1\r\nFormat : AVC\r\nFormat/Info : Advanced Video Codec\r\nFormat profile :   \r\nFormat settings, CABAC : Yes\r\nFormat settings, ReFrames : 4 frames\r\nCodec ID : V_MPEG4/ISO/AVC\r\nDuration : 42mn 28s\r\nBit rate : 6 326 Kbps\r\nWidth : 1 920 pixels\r\nHeight : 1 066 pixels\r\nDisplay aspect ratio : 16:9\r\nFrame rate mode : Constant\r\nFrame rate : 23.976 fps\r\nColor space : YUV\r\nChroma subsampling : 4:2:0\r\nBit depth : 8 bits\r\nScan type : Progressive\r\nBits/(Pixel*Frame) : 0.129\r\nStream size : 1.88 GiB (92%)\r\nWriting library : x264 core 148 r2638 7599210\r\nEncoding settings : cabac=1 / ref=4 / deblock=1:-2:-2 / analyse=0x3:0x113 / me=umh / subme=9 / psy=1 / psy_rd=1.00:0.00 / mixed_ref=1 / me_range=24 / chroma_me=1 / trellis=1 / 8x8dct=1 / cqm=0 / deadzone=21,11 / fast_pskip=0 / chroma_qp_offset=-2 / threads=18 / lookahead_threads=2 / sliced_threads=0 / nr=0 / decimate=1 / interlaced=0 / bluray_compat=0 / constrained_intra=0 / bframes=5 / b_pyramid=2 / b_adapt=2 / b_bias=0 / direct=3 / weightb=1 / open_gop=0 / weightp=2 / keyint=250 / keyint_min=23 / scenecut=40 / intra_refresh=0 / rc_lookahead=50 / rc=crf / mbtree=1 / crf=17.0 / qcomp=0.60 / qpmin=0 / qpmax=69 / qpstep=4 / ip_ratio=1.40 / aq=1:1.00\r\nLanguage : English\r\nDefault : Yes\r\nForced : No\r\nDURATION : 00:42:28.713000000\r\nNUMBER_OF_FRAMES : 61108\r\nNUMBER_OF_BYTES : 2058249609\r\n_STATISTICS_WRITING_APP : mkvmerge v8.4.0 ('A better way to fly') 64bit\r\n_STATISTICS_WRITING_DATE_UTC : 2015-11-17 21:34:10\r\n_STATISTICS_TAGS : BPS DURATION NUMBER_OF_FRAMES NUMBER_OF_BYTES\r\n\r\nAudio:\r\n\r\nID : 2\r\nFormat : AC-3\r\nFormat/Info : Audio Coding 3\r\nMode extension : CM (complete main)\r\nFormat settings, Endianness : Big\r\nCodec ID : A_AC3\r\nDuration : 42mn 28s\r\nBit rate mode : Constant\r\nBit rate : 384 Kbps\r\nChannel(s) : 6 channels\r\nChannel positions : Front: L C R, Side: L R, LFE\r\nSampling rate : 48.0 KHz\r\nCompression mode : Lossy\r\nStream size : 117 MiB (6%)\r\nDefault : Yes\r\nForced : No\r\n\r\nText:\r\n\r\nFormat                                   : SubRip\r\nCompression mode                         : Lossless","torrent":{"xt":"urn:btih:d8f6fb9bf9587453f9b5cf36ed3d79da349d2564","amp;dn":"The+Flash+2014+S02E07+1080p+HDTV+X264-DIMENSION%5Brartv%5D","amp;tr":["udp%3A%2F%2Ftracker.leechers-paradise.org%3A6969","udp%3A%2F%2Fzer0day.ch%3A1337","udp%3A%2F%2Fopen.demonii.com%3A1337","udp%3A%2F%2Ftracker.coppersurfer.tk%3A6969","udp%3A%2F%2Fexodus.desync.com%3A6969"],"infoHash":"d8f6fb9bf9587453f9b5cf36ed3d79da349d2564","infoHashBuffer":{"type":"Buffer","data":[216,246,251,155,249,88,116,83,249,181,207,54,237,61,121,218,52,157,37,100]},"announce":[],"urlList":[]}}